<?xml version="1.0" encoding="utf-8"?>
<!-- Generator: Adobe Illustrator 17.1.0, SVG Export Plug-In . SVG Version: 6.00 Build 0)  -->
<!DOCTYPE svg PUBLIC "-//W3C//DTD SVG 1.1//EN" "http://www.w3.org/Graphics/SVG/1.1/DTD/svg11.dtd">
<svg version="1.1" id="Capa_1" xmlns="http://www.w3.org/2000/svg" xmlns:xlink="http://www.w3.org/1999/xlink" x="0px" y="0px"
	 width="36px" height="36px" viewBox="0 0 36 36" enable-background="new 0 0 36 36" xml:space="preserve">
<g>
	<path fill="#FFFFFF" d="M36,15.7c0-0.9-0.8-1.7-1.7-1.7h-2.7c-0.3-1-0.7-1.9-1.2-2.8l1.9-1.9c0.3-0.3,0.5-0.8,0.5-1.2
		c0-0.5-0.2-0.9-0.5-1.2l-3.2-3.2c-0.6-0.6-1.8-0.6-2.4,0l-1.9,1.9c-0.9-0.5-1.8-0.9-2.8-1.2V1.7C22,0.8,21.2,0,20.3,0h-4.5
		C14.8,0,14,0.8,14,1.7v2.7c-1,0.3-1.9,0.7-2.8,1.2L9.3,3.7C8.6,3,7.5,3,6.9,3.7L3.7,6.9C3,7.5,3,8.6,3.7,9.3l1.9,1.9
		c-0.5,0.9-0.9,1.8-1.2,2.8H1.7C0.8,14,0,14.8,0,15.7v4.5C0,21.2,0.8,22,1.7,22h2.7c0.3,1,0.7,1.9,1.2,2.8l-1.9,1.9
		c-0.3,0.3-0.5,0.8-0.5,1.2c0,0.5,0.2,0.9,0.5,1.2l3.2,3.2c0.6,0.6,1.8,0.6,2.4,0l1.9-1.9c0.9,0.5,1.8,0.9,2.8,1.2v2.7
		c0,0.9,0.8,1.7,1.7,1.7h4.5c0.9,0,1.7-0.8,1.7-1.7v-2.7c1-0.3,1.9-0.7,2.8-1.2l1.9,1.9c0.6,0.6,1.8,0.6,2.4,0l3.2-3.2
		c0.7-0.7,0.7-1.8,0-2.4l-1.9-1.9c0.5-0.9,0.9-1.8,1.2-2.8h2.7c0.9,0,1.7-0.8,1.7-1.7V15.7z M24.2,18c0,3.4-2.8,6.2-6.2,6.2
		c-3.4,0-6.2-2.8-6.2-6.2c0-3.4,2.8-6.2,6.2-6.2C21.4,11.8,24.2,14.6,24.2,18L24.2,18z M24.2,18"/>
</g>
</svg>
