<?xml version="1.0" encoding="utf-8"?>
<!-- Generator: Adobe Illustrator 17.1.0, SVG Export Plug-In . SVG Version: 6.00 Build 0)  -->
<!DOCTYPE svg PUBLIC "-//W3C//DTD SVG 1.1//EN" "http://www.w3.org/Graphics/SVG/1.1/DTD/svg11.dtd">
<svg version="1.1" id="Capa_1" xmlns="http://www.w3.org/2000/svg" xmlns:xlink="http://www.w3.org/1999/xlink" x="0px" y="0px"
	 width="37px" height="37px" viewBox="0 0 37 37" enable-background="new 0 0 37 37" xml:space="preserve">
<g>
	<g>
		<path fill="#FFFFFF" d="M25.3,10.4c-0.1-0.1-0.2-0.1-0.3,0c-0.3,0.3-0.7,0.6-1.1,1c-0.3,0.3-0.6,0.6-0.9,0.9
			c-0.1,0.1-0.2,0.2-0.2,0.3c-0.1,0-0.1,0-0.2,0c-0.4,0-0.7,0.2-0.9,0.4c-0.2,0.3-0.3,0.7-0.3,1.1c-0.1,0.1-0.2,0.2-0.3,0.3
			c-0.3,0.3-0.6,0.7-0.9,1L20,15.6c-0.3,0.3-0.5,0.7-0.8,1l0,0.1c-0.2-0.1-0.5-0.1-0.7-0.1c-1.4,0-2.6,1.1-2.6,2.6
			c0,0.5,0.2,1,0.5,1.5l-0.1,0.1c-0.2,0.3-0.3,0.5-0.4,0.7c-0.2,0.3-0.3,0.6-0.3,0.6c-0.1,0.1,0,0.3,0.1,0.5
			c0.1,0.1,0.2,0.2,0.3,0.2c0.1,0,0.2,0,0.3-0.1c0,0,0.2-0.2,0.5-0.5c0.2-0.2,0.4-0.3,0.6-0.6l0.1-0.1c0.3,0.2,0.7,0.2,1.1,0.2
			c1.4,0,2.6-1.1,2.6-2.6c0-0.5-0.1-1-0.4-1.4l0,0c0.3-0.3,0.5-0.7,0.8-1l0.2-0.3c0.3-0.3,0.5-0.7,0.8-1.1c0.1-0.1,0.2-0.3,0.3-0.4
			c0.3,0,0.6-0.2,0.8-0.4c0.2-0.3,0.3-0.6,0.3-0.9c0-0.1,0-0.2-0.1-0.3c0.1-0.1,0.1-0.2,0.2-0.3c0.2-0.3,0.4-0.7,0.6-1
			c0.3-0.4,0.5-0.9,0.7-1.3C25.4,10.5,25.4,10.4,25.3,10.4L25.3,10.4z M25.3,10.4"/>
		<path fill="#FFFFFF" d="M24.8,16.2c-0.1,0-0.1,0-0.2,0c-0.3,0.1-0.6,0.2-0.8,0.5c-0.2,0.3-0.3,0.6-0.2,0.9c0.1,0.6,0.6,1,1.2,1
			c0.1,0,0.1,0,0.2,0c0.3-0.1,0.6-0.2,0.8-0.5c0.2-0.3,0.3-0.6,0.2-0.9C25.9,16.7,25.4,16.2,24.8,16.2L24.8,16.2z M24.8,16.2"/>
		<path fill="#FFFFFF" d="M13.4,17.7c0.1-0.3,0-0.6-0.2-0.9c-0.2-0.3-0.5-0.4-0.8-0.5c-0.1,0-0.1,0-0.2,0c-0.6,0-1.1,0.4-1.2,1
			c-0.1,0.3,0,0.6,0.2,0.9c0.2,0.3,0.5,0.4,0.8,0.5c0.1,0,0.1,0,0.2,0C12.8,18.7,13.3,18.3,13.4,17.7L13.4,17.7z M13.4,17.7"/>
		<path fill="#FFFFFF" d="M14.4,14.9c0.2,0,0.5,0,0.8-0.3c0.5-0.4,0.6-1.2,0.2-1.7c-0.2-0.3-0.6-0.4-0.9-0.4c-0.2,0-0.5,0-0.8,0.3
			c-0.3,0.2-0.4,0.5-0.4,0.8c0,0.3,0.1,0.6,0.3,0.9C13.7,14.7,14,14.9,14.4,14.9L14.4,14.9z M14.4,14.9"/>
		<path fill="#FFFFFF" d="M18.5,13.4c0.7,0,1.2-0.6,1.2-1.2c0-0.7-0.6-1.2-1.2-1.2c-0.7,0-1.2,0.6-1.2,1.2
			C17.3,12.8,17.8,13.4,18.5,13.4L18.5,13.4z M18.5,13.4"/>
		<path fill="#FFFFFF" d="M22.7,24.8h-8.3c-1.2,0-2.1,0.9-2.1,2.1c0,1.2,0.9,2.1,2.1,2.1h8.3c1.2,0,2.1-0.9,2.1-2.1
			C24.8,25.7,23.8,24.8,22.7,24.8L22.7,24.8z M22.7,24.8"/>
	</g>
	<path fill="#FFFFFF" d="M18.5,0.5c-9.9,0-18,8.1-18,18c0,9.9,8.1,18,18,18c9.9,0,18-8.1,18-18C36.5,8.6,28.4,0.5,18.5,0.5L18.5,0.5
		z M28,23.2c0.1,0.2,0.3,0.4,0.5,0.5l3.1,1.3c-2.4,4.8-7.4,8.1-13.1,8.1c-5.7,0-10.7-3.3-13.1-8.2l3.1-1.3C9,23.5,9.2,22.9,9,22.4
		s-0.7-0.7-1.2-0.5l-3.1,1.3c-0.5-1.5-0.8-3.1-0.8-4.7c0-1.6,0.3-3.2,0.8-4.7l3.1,1.3c0.5,0.2,1,0,1.2-0.5c0.2-0.5,0-1-0.5-1.2
		l-3.1-1.3c1.4-2.9,3.8-5.2,6.7-6.6l1.3,3.1C13.5,9,14.1,9.2,14.6,9c0.5-0.2,0.7-0.7,0.5-1.2l-1.3-3.1c1.5-0.5,3.1-0.8,4.7-0.8
		c1.6,0,3.2,0.3,4.7,0.8l-1.3,3.1c-0.1,0.2-0.1,0.5,0,0.7C22,8.7,22.2,8.9,22.4,9c0.5,0.2,1,0,1.2-0.5l1.3-3.1
		c2.9,1.4,5.2,3.8,6.6,6.7l-3.1,1.3c-0.5,0.2-0.7,0.7-0.5,1.2c0.2,0.5,0.7,0.7,1.2,0.5l3.1-1.3c0.5,1.5,0.8,3.1,0.8,4.7
		c0,1.6-0.3,3.2-0.8,4.7l-3.1-1.3c-0.5-0.2-1,0-1.2,0.5C27.9,22.7,27.9,22.9,28,23.2L28,23.2z M28,23.2"/>
</g>
</svg>
