<?xml version="1.0" encoding="utf-8"?>
<!-- Generator: Adobe Illustrator 17.1.0, SVG Export Plug-In . SVG Version: 6.00 Build 0)  -->
<!DOCTYPE svg PUBLIC "-//W3C//DTD SVG 1.1//EN" "http://www.w3.org/Graphics/SVG/1.1/DTD/svg11.dtd">
<svg version="1.1" id="Capa_1" xmlns="http://www.w3.org/2000/svg" xmlns:xlink="http://www.w3.org/1999/xlink" x="0px" y="0px"
	 width="82.2px" height="85.5px" viewBox="0 0 82.2 85.5" enable-background="new 0 0 82.2 85.5" xml:space="preserve">
<g>
	<rect x="12.1" y="66.8" fill="#23ADE4" width="60.4" height="15.8"/>
	<path fill="#2463A6" d="M76.7,0H2C1.2,0,0.4,0.5,0.1,1.3C-0.2,2,0,2.9,0.6,3.5l7.5,6.9c0.1,0.1,0.2,0.2,0.4,0.2v64.8
		c0,5.6,4.6,10.2,10.2,10.2h46.9c5.6,0,10.2-4.6,10.2-10.2V11.1c0-0.1,0-0.1,0-0.2h1c3,0,5.4-2.4,5.4-5.4C82.2,2.4,79.7,0,76.7,0z
		 M71.9,73.7c0,4.7-3.8,8.5-8.5,8.5H21.1c-4.7,0-8.5-3.8-8.5-8.5L12.5,58h7.1c1.1,0,2-0.9,2-2c0-1.1-0.9-2-2-2h-7.1v-5.1h16.4
		c1.1,0,2-0.9,2-2c0-1.1-0.9-2-2-2H12.5v-5.1h7.1c1.1,0,2-0.9,2-2c0-1.1-0.9-2-2-2h-7.1v-5.1h16.4c1.1,0,2-0.9,2-2c0-1.1-0.9-2-2-2
		H12.5v-5.1h7.1c1.1,0,2-0.9,2-2c0-1.1-0.9-2-2-2h-7.1v-6.8l59.3,0C71.8,10.9,71.9,73.7,71.9,73.7z M76.7,6.9h-2.2v0h-7.4v0H10.3
		L7.1,4h60v0h7.4v0h2.2c0.8,0,1.4,0.6,1.4,1.4C78.2,6.2,77.5,6.9,76.7,6.9z"/>
</g>
</svg>
