<?xml version="1.0" encoding="utf-8"?>
<!-- Generator: Adobe Illustrator 17.1.0, SVG Export Plug-In . SVG Version: 6.00 Build 0)  -->
<!DOCTYPE svg PUBLIC "-//W3C//DTD SVG 1.1//EN" "http://www.w3.org/Graphics/SVG/1.1/DTD/svg11.dtd">
<svg version="1.1" id="Capa_1" xmlns="http://www.w3.org/2000/svg" xmlns:xlink="http://www.w3.org/1999/xlink" x="0px" y="0px"
	 width="32px" height="36px" viewBox="0 0 32 36" enable-background="new 0 0 32 36" xml:space="preserve">
<g>
	<path fill="#FFFFFF" d="M27.1,0H0v32.3h27.1V0z M25.5,30.7H1.6V1.6h23.8V30.7z M25.5,30.7"/>
	<rect x="4.5" y="5.3" fill="#FFFFFF" width="18.5" height="1.7"/>
	<rect x="4.5" y="10.6" fill="#FFFFFF" width="18.5" height="1.7"/>
	<path fill="#FFFFFF" d="M28.2,3.7v1.6h1.5v29.1H5.9v-1.1H4.3V36h27.1V3.7H28.2z M28.2,3.7"/>
	<path fill="#FFFFFF" d="M5.2,23.3c0.3,0,0.6-0.1,0.9-0.2L8.4,25c0,0.1-0.1,0.2-0.1,0.3c0,1.1,0.9,2,2,2c1.1,0,2-0.9,2-2
		c0-0.3-0.1-0.6-0.2-0.9c1.1-1.7,2.5-3.8,3.4-5.1c0.1,0,0.3,0.1,0.4,0.1c0.5,0,0.9-0.2,1.3-0.5c0.8,0.4,1.8,1,2.6,1.5c0,0,0,0,0,0.1
		c0,1.1,0.9,2,2,2c1.1,0,2-0.9,2-2c0-1.1-0.9-2-2-2c-0.5,0-0.9,0.2-1.3,0.5L18,17.4c0,0,0-0.1,0-0.1c0-1.1-0.9-2-2-2s-2,0.9-2,2
		c0,0.4,0.1,0.7,0.3,1c-1.1,1.6-2.5,3.7-3.3,5c-0.2-0.1-0.4-0.1-0.5-0.1c-0.4,0-0.8,0.2-1.1,0.4c-0.6-0.5-1.4-1.2-2.2-1.8
		c0.1-0.2,0.1-0.4,0.1-0.6c0-1.1-0.9-2-2-2c-1.1,0-2,0.9-2,2C3.1,22.4,4,23.3,5.2,23.3L5.2,23.3z M5.2,23.3"/>
</g>
</svg>
