<?xml version="1.0" encoding="utf-8"?>
<!-- Generator: Adobe Illustrator 17.1.0, SVG Export Plug-In . SVG Version: 6.00 Build 0)  -->
<!DOCTYPE svg PUBLIC "-//W3C//DTD SVG 1.1//EN" "http://www.w3.org/Graphics/SVG/1.1/DTD/svg11.dtd">
<svg version="1.1" id="Capa_1" xmlns="http://www.w3.org/2000/svg" xmlns:xlink="http://www.w3.org/1999/xlink" x="0px" y="0px"
	 width="44px" height="36px" viewBox="0 0 44 36" enable-background="new 0 0 44 36" xml:space="preserve">
<g>
	<path fill="#FFFFFF" d="M0,0v36h44V0H0z M41.1,33.1H2.9V2.9h38.3V33.1z M41.1,33.1"/>
	<path fill="#FFFFFF" d="M12.5,16.9l-5.1,5.3v9c0,0.3,0.2,0.5,0.5,0.5h6.2c0.3,0,0.5-0.2,0.5-0.5V17.4l-1.4-0.5H12.5z M12.5,16.9"/>
	<path fill="#FFFFFF" d="M25.2,21.1H19c-0.3,0-0.5,0.2-0.5,0.5v9.7c0,0.3,0.2,0.5,0.5,0.5h6.2c0.3,0,0.5-0.2,0.5-0.5v-9.7
		C25.7,21.3,25.5,21.1,25.2,21.1L25.2,21.1z M25.2,21.1"/>
	<path fill="#FFFFFF" d="M34.3,11.2l-1.1-0.9l-4.1,4.5v16.6c0,0.3,0.2,0.5,0.5,0.5h6.2c0.3,0,0.5-0.2,0.5-0.5V11.4c0,0-0.1,0-0.1,0
		c-0.2,0.1-0.5,0.2-0.8,0.2C35,11.6,34.6,11.5,34.3,11.2L34.3,11.2z M34.3,11.2"/>
	<path fill="#FFFFFF" d="M5.8,21.6c0.2,0,0.5-0.1,0.7-0.3l5.9-6.1L22.7,19c0.4,0.1,0.7,0,1-0.2l9.5-10.3l2.2,1.9
		c0.1,0.1,0.3,0.1,0.4,0c0.1-0.1,0.2-0.2,0.2-0.3l-0.5-5.4c0-0.2-0.2-0.3-0.4-0.3l-5.4,0.5c-0.1,0-0.3,0.1-0.3,0.2c0,0,0,0.1,0,0.1
		c0,0.1,0.1,0.2,0.1,0.2l2.2,1.9l-9,9.8l-10.3-3.8c-0.3-0.1-0.7,0-1,0.2L5.2,20c-0.4,0.4-0.3,0.9,0,1.3C5.4,21.5,5.6,21.6,5.8,21.6
		L5.8,21.6z M5.8,21.6"/>
</g>
</svg>
